<?xml version="1.0" encoding="utf-8"?>
<!-- Generator: Adobe Illustrator 24.0.2, SVG Export Plug-In . SVG Version: 6.00 Build 0)  -->
<svg version="1.1" xmlns="http://www.w3.org/2000/svg" xmlns:xlink="http://www.w3.org/1999/xlink" x="0px" y="0px"
	 viewBox="0 0 24 24" style="enable-background:new 0 0 24 24;" xml:space="preserve">
<style type="text/css">
	.st0{fill:none;}
	.st1{fill:#121331;}
</style>
<g id="bounding_area">
	<rect class="st0" width="24" height="24"/>
</g>
<g id="design">
	<path class="st1" d="M17,14c-1.09,0-2.07,0.5-2.72,1.3l-4.89-2.45C9.46,12.58,9.5,12.29,9.5,12c0-0.29-0.04-0.58-0.11-0.85
		l4.89-2.45C14.93,9.5,15.91,10,17,10c1.93,0,3.5-1.57,3.5-3.5S18.93,3,17,3s-3.5,1.57-3.5,3.5c0,0.29,0.04,0.58,0.11,0.85L8.72,9.8
		C8.07,9,7.09,8.5,6,8.5c-1.93,0-3.5,1.57-3.5,3.5s1.57,3.5,3.5,3.5c1.09,0,2.07-0.5,2.72-1.3l4.89,2.45
		c-0.07,0.27-0.11,0.56-0.11,0.85c0,1.93,1.57,3.5,3.5,3.5s3.5-1.57,3.5-3.5S18.93,14,17,14z M17,4.5c1.1,0,2,0.9,2,2
		c0,1.1-0.9,2-2,2c-0.78,0-1.46-0.45-1.79-1.11C15.07,7.12,15,6.82,15,6.5C15,5.4,15.9,4.5,17,4.5z M6,14c-1.1,0-2-0.9-2-2
		c0-1.1,0.9-2,2-2c0.78,0,1.46,0.45,1.79,1.11C7.93,11.38,8,11.68,8,12s-0.08,0.63-0.21,0.9C7.45,13.55,6.78,14,6,14z M17,19.5
		c-1.1,0-2-0.9-2-2c0-0.32,0.08-0.63,0.21-0.9c0.34-0.65,1.01-1.1,1.79-1.1c1.1,0,2,0.9,2,2C19,18.6,18.1,19.5,17,19.5z"/>
</g>
</svg>
