<?xml version="1.0" encoding="utf-8"?>
<!-- Generator: Adobe Illustrator 24.0.2, SVG Export Plug-In . SVG Version: 6.00 Build 0)  -->
<svg version="1.1" xmlns="http://www.w3.org/2000/svg" xmlns:xlink="http://www.w3.org/1999/xlink" x="0px" y="0px"
	 viewBox="0 0 24 24" style="enable-background:new 0 0 24 24;" xml:space="preserve">
<style type="text/css">
	.st0{fill:none;}
	.st1{fill:#121331;}
</style>
<g id="bounding_box">
	<rect class="st0" width="24" height="24"/>
</g>
<g id="design">
	<path class="st1" d="M10.25,22c-0.1,0-0.21-0.02-0.31-0.07c-0.3-0.14-0.48-0.46-0.43-0.79L10.38,15H4.75
		c-0.29,0-0.55-0.16-0.67-0.42c-0.13-0.26-0.09-0.56,0.08-0.79l9-11.5c0.21-0.26,0.57-0.36,0.88-0.23s0.5,0.45,0.46,0.79L13.6,10
		l5.66,0.03c0.29,0,0.56,0.17,0.68,0.44c0.12,0.27,0.08,0.58-0.11,0.8l-9,10.47C10.67,21.91,10.46,22,10.25,22z M6.29,13.5h4.96
		c0.22,0,0.42,0.09,0.57,0.26s0.21,0.38,0.18,0.6l-0.64,4.46l6.27-7.29l-4.88-0.02c-0.21,0-0.42-0.09-0.56-0.25
		s-0.21-0.38-0.18-0.59l0.66-5.31L6.29,13.5z"/>
</g>
</svg>
