<?xml version="1.0" encoding="utf-8"?>
<!-- Generator: Adobe Illustrator 24.0.2, SVG Export Plug-In . SVG Version: 6.00 Build 0)  -->
<svg version="1.1" xmlns="http://www.w3.org/2000/svg" xmlns:xlink="http://www.w3.org/1999/xlink" x="0px" y="0px"
	 viewBox="0 0 24 24" style="enable-background:new 0 0 24 24;" xml:space="preserve">
<style type="text/css">
	.st0{fill:none;}
	.st1{fill:#121331;}
</style>
<g id="bounding_box">
	<rect class="st0" width="24" height="24"/>
</g>
<g id="design">
	<g>
		<path class="st1" d="M13.27,22c-0.47,0-0.92-0.18-1.26-0.52l0,0l-9.49-9.49c-0.41-0.41-0.59-1-0.49-1.57l1.19-6.59
			c0.06-0.31,0.3-0.55,0.61-0.6l6.59-1.19c0.57-0.1,1.16,0.08,1.57,0.49l9.49,9.49c0.34,0.33,0.52,0.78,0.52,1.26
			s-0.18,0.92-0.52,1.26l-6.95,6.95C14.19,21.82,13.74,22,13.27,22z M13.07,20.42c0.11,0.11,0.29,0.11,0.39,0l6.95-6.95
			c0.07-0.07,0.08-0.15,0.08-0.2s-0.01-0.12-0.08-0.2l-9.49-9.49c-0.06-0.06-0.15-0.09-0.25-0.08L4.6,4.6l-1.1,6.08
			c-0.02,0.09,0.01,0.18,0.08,0.24L13.07,20.42z"/>
		<path class="st1" d="M8,9C7.74,9,7.48,8.89,7.29,8.71c-0.04-0.05-0.08-0.1-0.12-0.15C7.13,8.5,7.1,8.44,7.08,8.38
			C7.05,8.32,7.03,8.26,7.02,8.2C7.01,8.13,7,8.07,7,8c0-0.26,0.11-0.52,0.29-0.71c0.37-0.37,1.04-0.37,1.42,0C8.89,7.48,9,7.74,9,8
			c0,0.07-0.01,0.13-0.02,0.2C8.97,8.26,8.95,8.32,8.92,8.38C8.9,8.44,8.87,8.5,8.83,8.56c-0.04,0.05-0.08,0.1-0.12,0.15
			C8.52,8.89,8.26,9,8,9z"/>
	</g>
</g>
</svg>
