<?xml version="1.0" encoding="utf-8"?>
<!-- Generator: Adobe Illustrator 24.0.2, SVG Export Plug-In . SVG Version: 6.00 Build 0)  -->
<svg version="1.1" xmlns="http://www.w3.org/2000/svg" xmlns:xlink="http://www.w3.org/1999/xlink" x="0px" y="0px"
	 viewBox="0 0 24 24" style="enable-background:new 0 0 24 24;" xml:space="preserve">
<style type="text/css">
	.st0{fill:none;}
	.st1{fill:#121331;}
</style>
<g id="bounding_area">
	<rect class="st0" width="24" height="24"/>
</g>
<g id="design">
	<g>
		<path class="st1" d="M18.25,3H16V2.76c0-0.41-0.34-0.75-0.75-0.75h-6.5C8.34,2.01,8,2.35,8,2.76V3H5.75C4.79,3,4,3.79,4,4.75v15.5
			C4,21.21,4.79,22,5.75,22h12.5c0.96,0,1.75-0.79,1.75-1.75V4.75C20,3.79,19.21,3,18.25,3z M9.5,3.51h5v2h-5V3.51z M18.5,20.25
			c0,0.14-0.11,0.25-0.25,0.25H5.75c-0.14,0-0.25-0.11-0.25-0.25V4.75c0-0.14,0.11-0.25,0.25-0.25H8v1.76
			c0,0.42,0.34,0.75,0.75,0.75h6.5c0.41,0,0.75-0.33,0.75-0.75V4.5h2.25c0.14,0,0.25,0.11,0.25,0.25V20.25z"/>
		<path class="st1" d="M8.75,19C8.34,19,8,18.67,8,18.25v-3.5C8,14.34,8.34,14,8.75,14s0.75,0.34,0.75,0.75v3.5
			C9.5,18.67,9.17,19,8.75,19z"/>
		<path class="st1" d="M15.25,19c-0.41,0-0.75-0.34-0.75-0.75v-5.51c0-0.41,0.34-0.75,0.75-0.75S16,12.33,16,12.75v5.51
			C16,18.67,15.66,19,15.25,19z"/>
		<path class="st1" d="M11.98,19c-0.41,0-0.75-0.34-0.75-0.75v-8.5c0-0.41,0.34-0.75,0.75-0.75s0.75,0.34,0.75,0.75v8.5
			C12.73,18.67,12.4,19,11.98,19z"/>
	</g>
</g>
</svg>
