<?xml version="1.0" encoding="utf-8"?>
<!-- Generator: Adobe Illustrator 24.0.2, SVG Export Plug-In . SVG Version: 6.00 Build 0)  -->
<svg version="1.1" xmlns="http://www.w3.org/2000/svg" xmlns:xlink="http://www.w3.org/1999/xlink" x="0px" y="0px"
	 viewBox="0 0 24 24" style="enable-background:new 0 0 24 24;" xml:space="preserve">
<style type="text/css">
	.st0{fill:none;}
	.st1{fill:#121331;}
</style>
<g id="bounding_area">
	<rect class="st0" width="24" height="24"/>
</g>
<g id="design">
	<g>
		<path class="st1" d="M18.25,3H16V2.76c0-0.41-0.34-0.75-0.75-0.75h-6.5C8.34,2.01,8,2.35,8,2.76V3H5.75C4.79,3,4,3.79,4,4.75v15.5
			C4,21.21,4.79,22,5.75,22h12.5c0.96,0,1.75-0.79,1.75-1.75V4.75C20,3.79,19.21,3,18.25,3z M9.5,3.51h5v2h-5V3.51z M18.5,20.25
			c0,0.14-0.11,0.25-0.25,0.25H5.75c-0.14,0-0.25-0.11-0.25-0.25V4.75c0-0.14,0.11-0.25,0.25-0.25H8v1.76
			c0,0.42,0.34,0.75,0.75,0.75h6.5c0.41,0,0.75-0.33,0.75-0.75V4.5h2.25c0.14,0,0.25,0.11,0.25,0.25V20.25z"/>
		<path class="st1" d="M16.25,12.5h-8.5C7.34,12.5,7,12.16,7,11.75S7.34,11,7.75,11h8.5c0.41,0,0.75,0.34,0.75,0.75
			S16.66,12.5,16.25,12.5z"/>
		<path class="st1" d="M16.25,15.26h-8.5C7.34,15.26,7,14.92,7,14.51s0.34-0.75,0.75-0.75h8.5c0.41,0,0.75,0.34,0.75,0.75
			S16.66,15.26,16.25,15.26z"/>
		<path class="st1" d="M11.25,18h-3.5C7.34,18,7,17.66,7,17.25s0.34-0.75,0.75-0.75h3.5c0.41,0,0.75,0.34,0.75,0.75
			S11.66,18,11.25,18z"/>
	</g>
</g>
</svg>
