<?xml version="1.0" encoding="utf-8"?>
<!-- Generator: Adobe Illustrator 24.0.2, SVG Export Plug-In . SVG Version: 6.00 Build 0)  -->
<svg version="1.1" xmlns="http://www.w3.org/2000/svg" xmlns:xlink="http://www.w3.org/1999/xlink" x="0px" y="0px"
	 viewBox="0 0 24 24" style="enable-background:new 0 0 24 24;" xml:space="preserve">
<style type="text/css">
	.st0{fill:none;}
	.st1{fill:#121331;}
</style>
<g id="bounding_area">
	<rect class="st0" width="24" height="24"/>
</g>
<g id="design">
	<g>
		<path class="st1" d="M19.3,15.72v3.48c0,0.41-0.34,0.75-0.75,0.75c-0.42,0-0.75-0.34-0.75-0.75v-1.7c-1.49,1.57-3.6,2.49-5.8,2.49
			c-4.14,0-7.55-3.1-7.94-7.22c-0.04-0.41,0.27-0.78,0.68-0.82c0.41-0.04,0.78,0.27,0.82,0.68c0.31,3.34,3.08,5.86,6.44,5.86
			c1.82,0,3.5-0.74,4.7-2.02h-1.63c-0.41,0-0.75-0.33-0.75-0.75c0-0.41,0.34-0.75,0.75-0.75h3.48C18.96,14.97,19.3,15.31,19.3,15.72
			z"/>
		<path class="st1" d="M19.94,11.23c0.04,0.41-0.27,0.78-0.68,0.82h-0.07c-0.38,0-0.71-0.29-0.75-0.68
			C18.13,8.03,15.36,5.51,12,5.51c-1.82,0-3.5,0.74-4.7,2.02h1.6c0.41,0,0.75,0.33,0.75,0.75c0,0.41-0.34,0.75-0.75,0.75H5.42
			c-0.41,0-0.75-0.34-0.75-0.75V4.8c0-0.41,0.34-0.75,0.75-0.75c0.41,0,0.75,0.34,0.75,0.75v1.73C7.66,4.95,9.78,4.01,12,4.01
			C16.14,4.01,19.55,7.11,19.94,11.23z"/>
	</g>
</g>
</svg>
