<?xml version="1.0" encoding="utf-8"?>
<!-- Generator: Adobe Illustrator 24.0.2, SVG Export Plug-In . SVG Version: 6.00 Build 0)  -->
<svg version="1.1" xmlns="http://www.w3.org/2000/svg" xmlns:xlink="http://www.w3.org/1999/xlink" x="0px" y="0px"
	 viewBox="0 0 24 24" style="enable-background:new 0 0 24 24;" xml:space="preserve">
<style type="text/css">
	.st0{fill:none;}
	.st1{fill:#121331;}
</style>
<g id="bounding_area">
	<rect class="st0" width="24" height="24"/>
</g>
<g id="design">
	<g>
		<path class="st1" d="M18,14.75h2.3c0.42,0,0.75-0.34,0.75-0.75c0-0.41-0.33-0.75-0.75-0.75H18V11.5h2.3
			c0.42,0,0.75-0.34,0.75-0.75c0-0.41-0.33-0.75-0.75-0.75H18V9.74c0-0.97-0.78-1.75-1.75-1.75H16c0-1.34-0.66-2.53-1.68-3.25
			l1.45-1.45c0.29-0.3,0.29-0.77,0-1.07c-0.29-0.29-0.77-0.29-1.06,0l-1.86,1.86C12.58,4.02,12.29,3.99,12,3.99
			c-0.3,0-0.59,0.03-0.86,0.09L9.28,2.22c-0.29-0.29-0.77-0.29-1.06,0c-0.29,0.29-0.29,0.77,0,1.06l1.46,1.46
			C8.66,5.46,8,6.65,8,7.99H7.75C6.79,7.99,6,8.77,6,9.74V10H3.79c-0.41,0-0.75,0.34-0.75,0.75c0,0.41,0.34,0.75,0.75,0.75H6v1.75
			H3.79c-0.41,0-0.75,0.34-0.75,0.75c0,0.41,0.34,0.75,0.75,0.75H6v1.5c0,0.08,0,0.17,0.01,0.25H3.79c-0.41,0-0.75,0.34-0.75,0.75
			c0,0.41,0.34,0.75,0.75,0.75h2.49c0.74,2.31,2.91,3.99,5.47,3.99h0.51c2.56,0,4.72-1.68,5.46-3.99h2.58
			c0.42,0,0.75-0.34,0.75-0.75c0-0.41-0.33-0.75-0.75-0.75h-2.31C18,16.42,18,16.33,18,16.25V14.75z M12,5.49
			c0.26,0,0.51,0.04,0.74,0.11c0.02,0.01,0.04,0.01,0.06,0.02c0.99,0.34,1.7,1.27,1.7,2.37h-5C9.5,6.61,10.62,5.49,12,5.49z
			 M16.5,16.25c0,2.17-1.64,3.97-3.75,4.21v-6.71c0-0.41-0.34-0.75-0.75-0.75s-0.75,0.34-0.75,0.75v6.71
			c-2.11-0.25-3.75-2.04-3.75-4.21V9.74c0-0.14,0.12-0.25,0.25-0.25h8.5c0.14,0,0.25,0.11,0.25,0.25V16.25z"/>
	</g>
</g>
</svg>
