<?xml version="1.0" encoding="utf-8"?>
<!-- Generator: Adobe Illustrator 24.0.2, SVG Export Plug-In . SVG Version: 6.00 Build 0)  -->
<svg version="1.1" xmlns="http://www.w3.org/2000/svg" xmlns:xlink="http://www.w3.org/1999/xlink" x="0px" y="0px"
	 viewBox="0 0 24 24" style="enable-background:new 0 0 24 24;" xml:space="preserve">
<style type="text/css">
	.st0{fill:none;}
	.st1{fill:#121331;}
</style>
<g id="bounding_area">
	<rect class="st0" width="24" height="24"/>
</g>
<g id="design">
	<g>
		<path class="st1" d="M6.78,21.01c-0.73,0-1.42-0.29-1.94-0.81L3.8,19.16c-0.52-0.52-0.81-1.21-0.81-1.94
			c0-0.73,0.29-1.42,0.81-1.94l5.45-5.45c-0.29-1.83,0.33-3.75,1.67-5.09c1.87-1.87,4.77-2.28,7.05-1c0.21,0.11,0.34,0.32,0.38,0.55
			c0.03,0.23-0.05,0.47-0.21,0.63l-3.5,3.5l0.99,0.99l3.49-3.49c0.17-0.17,0.4-0.25,0.64-0.21c0.23,0.03,0.44,0.18,0.55,0.38
			c1.25,2.31,0.84,5.12-1.04,6.99c-1.33,1.33-3.25,1.96-5.08,1.67L8.72,20.2C8.21,20.72,7.52,21.01,6.78,21.01z M15.12,4.49
			c-1.15,0-2.29,0.45-3.14,1.3c-1.07,1.07-1.53,2.65-1.19,4.1c0.06,0.25-0.02,0.52-0.2,0.7l-5.73,5.73
			c-0.24,0.24-0.37,0.55-0.37,0.88s0.13,0.65,0.37,0.88l1.04,1.04c0.47,0.47,1.29,0.47,1.77,0l5.73-5.73
			c0.18-0.18,0.45-0.26,0.7-0.2c1.46,0.34,3.03-0.11,4.1-1.19l0,0c1.15-1.15,1.56-2.75,1.17-4.24L16.15,11
			c-0.29,0.29-0.77,0.29-1.06,0l-2.05-2.05c-0.29-0.29-0.29-0.77,0-1.06l3.24-3.24C15.9,4.55,15.51,4.49,15.12,4.49z"/>
		<path class="st1" d="M7,18c-0.55,0-1-0.45-1-1s0.44-1,1-1H7c0.55,0,1,0.45,1,1S7.56,18,7,18z"/>
	</g>
</g>
</svg>
