<?xml version="1.0" encoding="utf-8"?>
<!-- Generator: Adobe Illustrator 24.0.2, SVG Export Plug-In . SVG Version: 6.00 Build 0)  -->
<svg version="1.1" xmlns="http://www.w3.org/2000/svg" xmlns:xlink="http://www.w3.org/1999/xlink" x="0px" y="0px"
	 viewBox="0 0 24 24" style="enable-background:new 0 0 24 24;" xml:space="preserve">
<style type="text/css">
	.st0{fill:none;}
	.st1{fill:#121331;}
</style>
<g id="bounding_area">
	<rect class="st0" width="24" height="24"/>
</g>
<g id="design">
	<g>
		<path class="st1" d="M18.9,4.76C16.96,2.92,14.42,1.94,11.76,2c-2.67,0.07-5.16,1.17-7,3.1C2.92,7.04,1.94,9.57,2,12.24
			c0.07,2.67,1.17,5.16,3.1,7C6.98,21.03,9.41,22,11.99,22h0.25c2.67-0.07,5.16-1.17,7-3.1c1.79-1.88,2.76-4.32,2.76-6.91v-0.23
			C21.93,9.09,20.83,6.6,18.9,4.76z M18.15,17.86c-1.56,1.65-3.67,2.58-5.94,2.64c-2.26,0.05-4.43-0.78-6.07-2.35
			c-1.65-1.56-2.58-3.67-2.64-5.94C3.45,9.94,4.28,7.78,5.85,6.14c1.56-1.65,3.67-2.58,5.94-2.64h0.22c2.19,0,4.26,0.83,5.85,2.35
			c0.82,0.78,1.47,1.7,1.92,2.7c0.44,1.01,0.69,2.11,0.72,3.24C20.55,14.06,19.72,16.22,18.15,17.86z"/>
		<path class="st1" d="M15.78,14.72c0.29,0.29,0.29,0.77,0,1.06C15.63,15.93,15.44,16,15.25,16s-0.38-0.07-0.53-0.22L12,13.06
			l-2.72,2.72C9.13,15.93,8.94,16,8.75,16s-0.38-0.07-0.53-0.22c-0.29-0.29-0.29-0.77,0-1.06L10.94,12L8.22,9.28
			c-0.29-0.29-0.29-0.77,0-1.06c0.29-0.29,0.77-0.29,1.06,0L12,10.94l2.72-2.72c0.29-0.29,0.77-0.29,1.06,0
			c0.29,0.29,0.29,0.77,0,1.06L13.06,12L15.78,14.72z"/>
	</g>
</g>
</svg>
