<?xml version="1.0" encoding="utf-8"?>
<!-- Generator: Adobe Illustrator 24.0.2, SVG Export Plug-In . SVG Version: 6.00 Build 0)  -->
<svg version="1.1" xmlns="http://www.w3.org/2000/svg" xmlns:xlink="http://www.w3.org/1999/xlink" x="0px" y="0px"
	 viewBox="0 0 24 24" style="enable-background:new 0 0 24 24;" xml:space="preserve">
<style type="text/css">
	.st0{fill:none;}
	.st1{fill:#121331;}
</style>
<g id="bounding_area">
	<rect class="st0" width="24" height="24"/>
</g>
<g id="design">
	<g>
		<path class="st1" d="M10.66,16c-0.19,0-0.38-0.07-0.53-0.22l-2.51-2.5c-0.29-0.29-0.29-0.77,0-1.06c0.29-0.29,0.77-0.29,1.06,0
			l1.98,1.97l4.98-4.98c0.29-0.29,0.77-0.29,1.06,0c0.29,0.29,0.29,0.77,0,1.06l-5.51,5.51C11.04,15.93,10.85,16,10.66,16z"/>
		<path class="st1" d="M11.99,22c-2.58,0-5.02-0.97-6.89-2.76c-1.93-1.84-3.03-4.33-3.1-7C1.87,6.73,6.25,2.14,11.76,2
			c2.67-0.06,5.21,0.91,7.14,2.76c1.93,1.84,3.03,4.33,3.1,7l0,0c0.06,2.67-0.91,5.21-2.76,7.14c-1.84,1.93-4.33,3.03-7,3.1
			C12.16,22,12.07,22,11.99,22z M12.01,3.5c-0.07,0-0.14,0-0.21,0c-4.69,0.11-8.41,4.02-8.29,8.7c0.05,2.27,0.99,4.38,2.63,5.95
			s3.79,2.4,6.07,2.34c2.27-0.05,4.38-0.99,5.95-2.63s2.4-3.8,2.34-6.07l0,0c-0.05-2.27-0.99-4.38-2.63-5.95
			C16.27,4.33,14.2,3.5,12.01,3.5z"/>
	</g>
</g>
</svg>
