<?xml version="1.0" encoding="utf-8"?>
<!-- Generator: Adobe Illustrator 24.0.2, SVG Export Plug-In . SVG Version: 6.00 Build 0)  -->
<svg version="1.1" xmlns="http://www.w3.org/2000/svg" xmlns:xlink="http://www.w3.org/1999/xlink" x="0px" y="0px"
	 viewBox="0 0 24 24" style="enable-background:new 0 0 24 24;" xml:space="preserve">
<style type="text/css">
	.st0{fill:none;}
	.st1{fill:#121331;}
</style>
<g id="bounding_area">
	<rect class="st0" width="24" height="24"/>
</g>
<g id="design">
	<g>
		<path class="st1" d="M21.44,12.23l-0.01-0.01c-0.02-0.06-0.05-0.13-0.07-0.19c-0.01-0.01-0.01-0.02-0.02-0.03
			C19.93,8.21,16.28,5.5,12,5.5c0,0,0,0-0.01,0C7.66,5.51,3.98,8.26,2.6,12.11c-0.02,0.04-0.03,0.08-0.04,0.12
			C2.19,13.25,2,14.35,2,15.5v2.75C2,18.66,2.33,19,2.75,19h18.5c0.41,0,0.75-0.34,0.75-0.75V15.5C22,14.36,21.8,13.26,21.44,12.23z
			 M20.5,17.5h-17v-2c0-0.75,0.1-1.48,0.28-2.17l1.03,0.27c0.06,0.02,0.13,0.03,0.19,0.03c0.33,0,0.63-0.22,0.72-0.56
			c0.11-0.4-0.13-0.81-0.53-0.91l-0.9-0.24c1.26-2.69,3.87-4.62,6.96-4.89v1.29c0.01,0.41,0.34,0.74,0.75,0.74c0.01,0,0.01,0,0.01,0
			c0.41,0,0.75-0.34,0.74-0.75V7.03c3.08,0.27,5.7,2.2,6.96,4.89l-0.9,0.24c-0.4,0.1-0.64,0.51-0.53,0.91
			c0.09,0.34,0.39,0.56,0.72,0.56c0.06,0,0.13-0.01,0.19-0.03l1.03-0.27c0.18,0.69,0.28,1.42,0.28,2.17V17.5z"/>
		<path class="st1" d="M13.25,14.75C13.25,15.44,12.7,16,12,16c-0.53,0-0.98-0.33-1.16-0.79L8.5,14.59
			c-0.4-0.11-0.64-0.52-0.53-0.92c0.11-0.4,0.51-0.64,0.92-0.53l2.34,0.63c0.21-0.17,0.48-0.27,0.77-0.27
			C12.7,13.5,13.25,14.06,13.25,14.75z"/>
	</g>
</g>
</svg>
