<?xml version="1.0" encoding="utf-8"?>
<!-- Generator: Adobe Illustrator 24.0.2, SVG Export Plug-In . SVG Version: 6.00 Build 0)  -->
<svg version="1.1" xmlns="http://www.w3.org/2000/svg" xmlns:xlink="http://www.w3.org/1999/xlink" x="0px" y="0px"
	 viewBox="0 0 24 24" style="enable-background:new 0 0 24 24;" xml:space="preserve">
<style type="text/css">
	.st0{fill:none;}
	.st1{fill:#121331;}
</style>
<g id="bounding_area">
	<rect class="st0" width="24" height="24"/>
</g>
<g id="design">
	<g>
		<path class="st1" d="M16.75,18c-0.17,0-0.35-0.06-0.49-0.18c-0.31-0.27-0.35-0.75-0.07-1.06l4.08-4.68l-4.08-4.84
			c-0.27-0.32-0.23-0.79,0.09-1.06c0.32-0.27,0.79-0.23,1.06,0.09l4.5,5.33c0.24,0.28,0.24,0.7-0.01,0.98l-4.5,5.17
			C17.17,17.91,16.96,18,16.75,18z"/>
		<path class="st1" d="M7.25,18c-0.21,0-0.42-0.09-0.57-0.27l-4.5-5.33c-0.24-0.28-0.24-0.7,0.01-0.98l4.5-5.17
			c0.27-0.31,0.75-0.34,1.06-0.07c0.31,0.27,0.35,0.75,0.07,1.06l-4.08,4.68l4.08,4.84c0.27,0.32,0.23,0.79-0.09,1.06
			C7.59,17.94,7.42,18,7.25,18z"/>
		<path class="st1" d="M10.5,18.12c-0.07,0-0.13-0.01-0.2-0.03c-0.4-0.11-0.63-0.53-0.52-0.92l3-10.75c0.11-0.4,0.52-0.63,0.92-0.52
			c0.4,0.11,0.63,0.52,0.52,0.92l-3,10.75C11.13,17.91,10.83,18.12,10.5,18.12z"/>
	</g>
</g>
</svg>
