<?xml version="1.0" encoding="utf-8"?>
<!-- Generator: Adobe Illustrator 24.0.2, SVG Export Plug-In . SVG Version: 6.00 Build 0)  -->
<svg version="1.1" xmlns="http://www.w3.org/2000/svg" xmlns:xlink="http://www.w3.org/1999/xlink" x="0px" y="0px"
	 viewBox="0 0 24 24" style="enable-background:new 0 0 24 24;" xml:space="preserve">
<style type="text/css">
	.st0{fill:none;}
	.st1{fill:#121331;}
</style>
<g id="bounding_area">
	<rect class="st0" width="24" height="24"/>
</g>
<g id="design">
	<g>
		<path class="st1" d="M19.25,3.5H4.75C4.34,3.5,4,3.16,4,2.75S4.34,2,4.75,2h14.5C19.66,2,20,2.34,20,2.75S19.66,3.5,19.25,3.5z"/>
		<path class="st1" d="M19.25,21.98H4.75C4.34,21.98,4,21.64,4,21.23s0.34-0.75,0.75-0.75h14.5c0.41,0,0.75,0.34,0.75,0.75
			S19.66,21.98,19.25,21.98z"/>
		<g>
			<path class="st1" d="M14.58,15.68c0.29,0.29,0.29,0.77,0,1.06l-2.05,2.05c-0.07,0.07-0.15,0.12-0.24,0.16
				c-0.09,0.04-0.19,0.06-0.29,0.06s-0.2-0.02-0.29-0.06c-0.09-0.04-0.17-0.09-0.24-0.16l-2.05-2.05c-0.29-0.29-0.29-0.77,0-1.06
				c0.29-0.3,0.77-0.29,1.06,0l0.77,0.77V7.57l-0.77,0.77c-0.29,0.29-0.77,0.29-1.06,0c-0.29-0.3-0.29-0.77,0-1.06l2.05-2.05
				c0.07-0.07,0.15-0.12,0.24-0.16C11.9,5,12.1,5,12.29,5.07c0.09,0.04,0.17,0.09,0.24,0.16l2.05,2.05c0.29,0.29,0.29,0.76,0,1.06
				c-0.15,0.14-0.34,0.22-0.53,0.22c-0.19,0-0.38-0.08-0.53-0.22l-0.77-0.77v8.88l0.77-0.77C13.81,15.38,14.29,15.38,14.58,15.68z"
				/>
			<path class="st1" d="M12.29,5.07C12.1,5,11.9,5,11.71,5.07C11.8,5.03,11.9,5.01,12,5.01S12.2,5.03,12.29,5.07z"/>
		</g>
	</g>
</g>
</svg>
