<?xml version="1.0" encoding="utf-8"?>
<!-- Generator: Adobe Illustrator 24.0.2, SVG Export Plug-In . SVG Version: 6.00 Build 0)  -->
<svg version="1.1" xmlns="http://www.w3.org/2000/svg" xmlns:xlink="http://www.w3.org/1999/xlink" x="0px" y="0px"
	 viewBox="0 0 24 24" style="enable-background:new 0 0 24 24;" xml:space="preserve">
<style type="text/css">
	.st0{fill:none;}
	.st1{fill:#121331;}
</style>
<g id="bounding_area">
	<rect class="st0" width="24" height="24"/>
</g>
<g id="design">
	<g>
		<path class="st1" d="M13.74,18.02c-0.41,0-0.75-0.34-0.75-0.75v-4.5c0-0.41,0.34-0.75,0.75-0.75s0.75,0.34,0.75,0.75v4.5
			C14.49,17.68,14.16,18.02,13.74,18.02z"/>
		<path class="st1" d="M10.25,18c-0.41,0-0.75-0.34-0.75-0.75v-4.5c0-0.41,0.34-0.75,0.75-0.75S11,12.34,11,12.75v4.5
			C11,17.66,10.66,18,10.25,18z"/>
		<path class="st1" d="M20.25,4h-7.5V2.75C12.75,2.34,12.41,2,12,2s-0.75,0.34-0.75,0.75V4h-7.5C3.34,4,3,4.34,3,4.75
			C3,5.16,3.34,5.5,3.75,5.5h0.57l1.54,14.05C6.01,20.95,7.19,22,8.59,22h6.82c1.4,0,2.58-1.05,2.73-2.45L19.68,5.5h0.57
			C20.66,5.5,21,5.16,21,4.75C21,4.34,20.66,4,20.25,4z M16.65,19.39c-0.07,0.63-0.6,1.11-1.24,1.11H8.59
			c-0.64,0-1.17-0.48-1.24-1.11L6.27,9.5h11.46L16.65,19.39z M17.89,8H6.11L5.84,5.5h12.32L17.89,8z"/>
	</g>
</g>
</svg>
