<?xml version="1.0" encoding="utf-8"?>
<!-- Generator: Adobe Illustrator 24.0.2, SVG Export Plug-In . SVG Version: 6.00 Build 0)  -->
<svg version="1.1" xmlns="http://www.w3.org/2000/svg" xmlns:xlink="http://www.w3.org/1999/xlink" x="0px" y="0px"
	 viewBox="0 0 24 24" style="enable-background:new 0 0 24 24;" xml:space="preserve">
<style type="text/css">
	.st0{fill:none;}
	.st1{display:none;}
	.st2{display:inline;}
	.st3{fill:none;stroke:#CECECE;stroke-width:0.1;stroke-miterlimit:10;}
	.st4{fill:#121331;}
</style>
<g id="bounding_box">
	<rect x="0" y="0" class="st0" width="24" height="24"/>
</g>
<g id="design">
	<path class="st4" d="M12,20.5c-0.2,0-0.39-0.08-0.54-0.22l-7.07-7.2c-1.88-1.9-1.87-5.24,0.03-7.13c1.89-1.89,4.97-1.9,6.88-0.02
		c0.28,0.28,0.51,0.57,0.7,0.87c0.19-0.31,0.42-0.59,0.67-0.85c0.92-0.92,2.14-1.43,3.45-1.43c1.3,0,2.53,0.51,3.45,1.43
		c1.91,1.91,1.91,5.25,0,7.16l-7.04,7.17C12.39,20.42,12.2,20.5,12,20.5z M7.86,6.03C7,6.03,6.14,6.35,5.49,7.01
		c-1.31,1.31-1.32,3.7-0.02,5.02L12,18.68l6.51-6.63c0,0,0,0,0,0c1.32-1.32,1.32-3.72,0-5.04c-1.27-1.27-3.5-1.27-4.78,0
		c-0.34,0.34-0.6,0.75-0.78,1.22c-0.2,0.54-0.31,0.71-0.31,0.71C12.52,9.16,12.26,9.3,12,9.3l0,0c-0.26,0-0.51-0.14-0.65-0.36
		c0,0-0.1-0.17-0.32-0.7c-0.16-0.47-0.41-0.86-0.75-1.2C9.6,6.36,8.73,6.03,7.86,6.03z"/>
</g>
</svg>
