<?xml version="1.0" encoding="utf-8"?>
<!-- Generator: Adobe Illustrator 24.0.2, SVG Export Plug-In . SVG Version: 6.00 Build 0)  -->
<svg version="1.1" xmlns="http://www.w3.org/2000/svg" xmlns:xlink="http://www.w3.org/1999/xlink" x="0px" y="0px"
	 viewBox="0 0 24 24" style="enable-background:new 0 0 24 24;" xml:space="preserve">
<style type="text/css">
	.st0{fill:none;}
	.st1{display:none;}
	.st2{display:inline;}
	.st3{fill:none;stroke:#CECECE;stroke-width:0.1;stroke-miterlimit:10;}
	.st4{fill:#121331;}
</style>
<g id="bounding_box">
	<rect x="0" y="0" class="st0" width="24" height="24"/>
</g>
<g id="design">
	<path class="st4" d="M12,16c-0.34,0-0.69-0.04-1.03-0.13c-0.27-0.08-0.64-0.2-0.99-0.42c-0.59-0.33-1.1-0.84-1.45-1.46
		c-0.2-0.32-0.32-0.69-0.39-0.93C8.04,12.69,8,12.34,8,12s0.04-0.69,0.13-1.03c0.08-0.27,0.2-0.64,0.42-0.99
		c0.33-0.59,0.84-1.1,1.46-1.45c0.23-0.15,0.54-0.28,0.93-0.4c0.73-0.19,1.4-0.18,2.08-0.01c0.42,0.12,0.72,0.25,0.99,0.42
		c0.59,0.33,1.1,0.84,1.45,1.46c0.2,0.31,0.32,0.68,0.39,0.93C15.96,11.31,16,11.66,16,12s-0.04,0.69-0.13,1.03
		c-0.08,0.27-0.2,0.64-0.42,0.99c-0.33,0.59-0.84,1.1-1.46,1.45c-0.32,0.2-0.69,0.32-0.93,0.39C12.69,15.96,12.34,16,12,16z M12,9.5
		c-0.21,0-0.43,0.03-0.65,0.09c-0.24,0.07-0.42,0.15-0.57,0.24c-0.41,0.23-0.72,0.54-0.93,0.92c-0.11,0.18-0.19,0.37-0.27,0.63
		C9.53,11.57,9.5,11.78,9.5,12s0.03,0.43,0.09,0.65c0.07,0.24,0.15,0.43,0.24,0.57c0.23,0.41,0.54,0.72,0.92,0.93
		c0.18,0.11,0.37,0.19,0.63,0.27c0.39,0.1,0.84,0.11,1.28-0.01c0.24-0.07,0.43-0.15,0.57-0.24c0.41-0.23,0.72-0.54,0.93-0.92
		c0.11-0.18,0.19-0.37,0.27-0.63c0.05-0.2,0.08-0.41,0.08-0.63s-0.03-0.43-0.09-0.65c-0.07-0.24-0.15-0.43-0.24-0.57
		c-0.23-0.41-0.54-0.72-0.92-0.93c-0.18-0.11-0.37-0.19-0.63-0.27C12.43,9.53,12.21,9.5,12,9.5z"/>
	<path class="st4" d="M12,16c-0.34,0-0.69-0.04-1.03-0.13c-0.27-0.08-0.64-0.2-0.99-0.42c-0.59-0.33-1.1-0.84-1.45-1.46
		c-0.2-0.32-0.32-0.69-0.39-0.93C8.04,12.69,8,12.34,8,12s0.04-0.69,0.13-1.03c0.08-0.27,0.2-0.64,0.42-0.99
		c0.33-0.59,0.84-1.1,1.46-1.45c0.23-0.15,0.54-0.28,0.93-0.4c0.73-0.19,1.4-0.18,2.08-0.01c0.42,0.12,0.72,0.25,0.99,0.42
		c0.59,0.33,1.1,0.84,1.45,1.46c0.2,0.31,0.32,0.68,0.39,0.93C15.96,11.31,16,11.66,16,12s-0.04,0.69-0.13,1.03
		c-0.08,0.27-0.2,0.64-0.42,0.99c-0.33,0.59-0.84,1.1-1.46,1.45c-0.32,0.2-0.69,0.32-0.93,0.39C12.69,15.96,12.34,16,12,16z M12,9.5
		c-0.21,0-0.43,0.03-0.65,0.09c-0.24,0.07-0.42,0.15-0.57,0.24c-0.41,0.23-0.72,0.54-0.93,0.92c-0.11,0.18-0.19,0.37-0.27,0.63
		C9.53,11.57,9.5,11.78,9.5,12s0.03,0.43,0.09,0.65c0.07,0.24,0.15,0.43,0.24,0.57c0.23,0.41,0.54,0.72,0.92,0.93
		c0.18,0.11,0.37,0.19,0.63,0.27c0.39,0.1,0.84,0.11,1.28-0.01c0.24-0.07,0.43-0.15,0.57-0.24c0.41-0.23,0.72-0.54,0.93-0.92
		c0.11-0.18,0.19-0.37,0.27-0.63c0.05-0.2,0.08-0.41,0.08-0.63s-0.03-0.43-0.09-0.65c-0.07-0.24-0.15-0.43-0.24-0.57
		c-0.23-0.41-0.54-0.72-0.92-0.93c-0.18-0.11-0.37-0.19-0.63-0.27C12.43,9.53,12.21,9.5,12,9.5z"/>
	<path class="st4" d="M13.75,22h-3.5C9.56,22,9,21.44,9,20.75v-1.34c-0.68-0.27-1.32-0.64-1.91-1.11l-1.16,0.67
		c-0.6,0.35-1.37,0.15-1.71-0.45l-1.75-3.03c-0.17-0.31-0.2-0.64-0.12-0.95c0.09-0.33,0.31-0.6,0.6-0.76l1.13-0.65
		C4.03,12.76,4,12.39,4,12s0.03-0.76,0.08-1.12l-1.15-0.67c-0.28-0.15-0.49-0.43-0.58-0.75C2.26,9.15,2.29,8.82,2.45,8.53l1.76-3.05
		c0.17-0.29,0.44-0.5,0.77-0.58C5.3,4.82,5.64,4.86,5.93,5.03L7.09,5.7C7.68,5.23,8.32,4.86,9,4.59V3.25C9,2.56,9.56,2,10.25,2h3.5
		C14.44,2,15,2.56,15,3.25v1.34c0.68,0.27,1.32,0.64,1.91,1.12l1.16-0.67c0.29-0.17,0.62-0.21,0.95-0.13
		c0.33,0.08,0.6,0.29,0.77,0.58l1.75,3.03c0.17,0.3,0.2,0.64,0.12,0.95c-0.09,0.33-0.31,0.6-0.6,0.76l-1.13,0.66
		C19.97,11.24,20,11.61,20,12s-0.03,0.76-0.08,1.12l1.15,0.66c0.29,0.16,0.5,0.43,0.59,0.76c0.09,0.32,0.05,0.65-0.11,0.93
		l-1.76,3.05c-0.35,0.6-1.12,0.8-1.72,0.45l-1.16-0.67c-0.59,0.47-1.23,0.84-1.91,1.11v1.34C15,21.44,14.44,22,13.75,22z M10.5,20.5
		h3v-1.62c0-0.33,0.21-0.62,0.53-0.72c0.84-0.26,1.61-0.71,2.29-1.34c0.24-0.22,0.6-0.26,0.88-0.1l1.41,0.82l1.5-2.59l-1.4-0.81
		c-0.29-0.17-0.43-0.5-0.36-0.82c0.09-0.41,0.14-0.86,0.14-1.33c0-0.48-0.05-0.92-0.14-1.33c-0.07-0.32,0.07-0.65,0.36-0.82
		l1.4-0.81l-1.5-2.59l-1.41,0.82c-0.28,0.16-0.64,0.13-0.88-0.1c-0.68-0.63-1.45-1.08-2.29-1.34c-0.31-0.1-0.53-0.39-0.53-0.72V3.5
		h-3v1.62c0,0.33-0.21,0.62-0.53,0.72C9.13,6.1,8.36,6.55,7.68,7.17c-0.24,0.22-0.6,0.26-0.88,0.1L5.38,6.45l-1.5,2.59l1.4,0.81
		c0.29,0.16,0.43,0.5,0.36,0.82C5.55,11.08,5.5,11.52,5.5,12c0,0.48,0.05,0.92,0.14,1.33c0.07,0.32-0.07,0.65-0.36,0.82l-1.4,0.81
		l1.5,2.59l1.41-0.82c0.29-0.17,0.64-0.12,0.88,0.1c0.68,0.63,1.46,1.08,2.29,1.34c0.31,0.1,0.53,0.39,0.53,0.72V20.5z M20.34,15.09
		C20.34,15.09,20.34,15.09,20.34,15.09S20.34,15.09,20.34,15.09z M3.69,15.07l-0.01,0.01C3.68,15.08,3.68,15.08,3.69,15.07z
		 M20.33,8.92C20.32,8.92,20.32,8.92,20.33,8.92L20.33,8.92z M3.66,8.91l0.01,0.01C3.67,8.92,3.66,8.91,3.66,8.91z M5.17,6.33
		C5.17,6.33,5.17,6.33,5.17,6.33L5.17,6.33z M18.83,6.33L18.83,6.33L18.83,6.33z M12,16c-0.34,0-0.69-0.04-1.03-0.13
		c-0.27-0.08-0.64-0.2-0.99-0.42c-0.59-0.33-1.1-0.84-1.45-1.46c-0.2-0.32-0.32-0.69-0.39-0.93C8.04,12.69,8,12.34,8,12
		s0.04-0.69,0.13-1.03c0.08-0.27,0.2-0.64,0.42-0.99c0.33-0.59,0.84-1.1,1.46-1.45c0.23-0.15,0.54-0.28,0.93-0.4
		c0.73-0.19,1.4-0.18,2.08-0.01c0.42,0.12,0.72,0.25,0.99,0.42c0.59,0.33,1.1,0.84,1.45,1.46c0.2,0.31,0.32,0.68,0.39,0.93
		C15.96,11.31,16,11.66,16,12s-0.04,0.69-0.13,1.03c0,0.01,0,0.02-0.01,0.02c-0.07,0.25-0.2,0.62-0.41,0.97
		c-0.33,0.59-0.84,1.1-1.46,1.45c-0.32,0.2-0.69,0.32-0.93,0.39C12.69,15.96,12.34,16,12,16z M12,9.5c-0.21,0-0.43,0.03-0.65,0.09
		c-0.24,0.07-0.42,0.15-0.57,0.24c-0.41,0.23-0.72,0.54-0.93,0.92c-0.11,0.18-0.19,0.37-0.27,0.63C9.53,11.57,9.5,11.78,9.5,12
		s0.03,0.43,0.09,0.65c0.07,0.24,0.15,0.43,0.24,0.57c0.23,0.41,0.54,0.72,0.92,0.93c0.18,0.11,0.37,0.19,0.63,0.27
		c0.39,0.1,0.84,0.11,1.28-0.01c0.24-0.07,0.43-0.15,0.57-0.24c0.41-0.23,0.72-0.54,0.93-0.92c0.11-0.17,0.19-0.36,0.26-0.61
		c0.06-0.22,0.08-0.43,0.08-0.64c0-0.22-0.03-0.43-0.09-0.65c-0.07-0.24-0.15-0.43-0.24-0.57c-0.23-0.41-0.54-0.72-0.92-0.93
		c-0.18-0.11-0.37-0.19-0.63-0.27C12.43,9.53,12.21,9.5,12,9.5z M15.14,12.84L15.14,12.84L15.14,12.84z"/>
</g>
</svg>
