<?xml version="1.0" encoding="utf-8"?>
<!-- Generator: Adobe Illustrator 24.0.2, SVG Export Plug-In . SVG Version: 6.00 Build 0)  -->
<svg version="1.1" xmlns="http://www.w3.org/2000/svg" xmlns:xlink="http://www.w3.org/1999/xlink" x="0px" y="0px"
	 viewBox="0 0 24 24" style="enable-background:new 0 0 24 24;" xml:space="preserve">
<style type="text/css">
	.st0{fill:none;}
	.st1{display:none;}
	.st2{display:inline;}
	.st3{fill:none;stroke:#CECECE;stroke-width:0.1;stroke-miterlimit:10;}
	.st4{fill:#121331;}
</style>
<g id="bounding_box">
	<rect x="0" y="0" class="st0" width="24" height="24"/>
</g>
<g id="design">
	<path class="st4" d="M19.07,4.93C17.18,3.04,14.67,2,12,2S6.82,3.04,4.93,4.93c-3.9,3.9-3.9,10.24,0,14.14
		C6.88,21.02,9.44,22,12,22s5.12-0.98,7.07-2.93C22.97,15.17,22.97,8.83,19.07,4.93z M18.01,18.01c-3.31,3.31-8.71,3.32-12.02,0
		c-3.32-3.31-3.32-8.71,0-12.02C7.59,4.38,9.73,3.5,12,3.5s4.4,0.88,6.01,2.49C21.32,9.3,21.32,14.7,18.01,18.01z"/>
	<g>
		<g>
			<path class="st4" d="M16.78,16.78C16.63,16.93,16.44,17,16.25,17s-0.38-0.07-0.53-0.22l-4.25-4.25
				c-0.07-0.07-0.12-0.15-0.16-0.24c-0.04-0.09-0.06-0.19-0.06-0.29V7.79c0-0.41,0.34-0.75,0.75-0.75c0.42,0,0.75,0.34,0.75,0.75
				v3.9l4.03,4.03C17.07,16.02,17.07,16.49,16.78,16.78z"/>
		</g>
	</g>
</g>
</svg>
