<?xml version="1.0" encoding="utf-8"?>
<!-- Generator: Adobe Illustrator 24.0.2, SVG Export Plug-In . SVG Version: 6.00 Build 0)  -->
<svg version="1.1" xmlns="http://www.w3.org/2000/svg" xmlns:xlink="http://www.w3.org/1999/xlink" x="0px" y="0px"
	 viewBox="0 0 24 24" style="enable-background:new 0 0 24 24;" xml:space="preserve">
<style type="text/css">
	.st0{fill:none;}
	.st1{display:none;}
	.st2{display:inline;}
	.st3{fill:none;stroke:#CECECE;stroke-width:0.1;stroke-miterlimit:10;}
	.st4{fill:#121331;}
</style>
<g id="bounding_box">
	<rect x="0" y="0" class="st0" width="24" height="24"/>
</g>
<g id="design">
	<path class="st4" d="M9.13,20.06H6.91c-1.02,0-1.86-0.8-1.86-1.79V5.79C5.06,4.81,5.89,4,6.91,4h2.22c1.02,0,1.86,0.8,1.86,1.79
		v12.48C10.99,19.26,10.16,20.06,9.13,20.06z M6.91,5.5c-0.19,0-0.36,0.13-0.36,0.29v12.48c0,0.16,0.16,0.29,0.36,0.29h2.22
		c0.19,0,0.36-0.13,0.36-0.29V5.79c0-0.16-0.16-0.29-0.36-0.29H6.91z"/>
	<path class="st4" d="M17.16,20.06h-2.23c-1.03,0-1.87-0.8-1.87-1.79V5.79C13.07,4.81,13.9,4,14.93,4h2.23
		c1.03,0,1.86,0.8,1.86,1.79v12.48C19.03,19.26,18.19,20.06,17.16,20.06z M14.93,5.5c-0.19,0-0.37,0.14-0.37,0.29v12.48
		c0,0.15,0.17,0.29,0.37,0.29h2.23c0.19,0,0.36-0.14,0.36-0.29V5.79c0-0.15-0.17-0.29-0.36-0.29H14.93z"/>
</g>
</svg>
