<?xml version="1.0" encoding="utf-8"?>
<!-- Generator: Adobe Illustrator 24.0.2, SVG Export Plug-In . SVG Version: 6.00 Build 0)  -->
<svg version="1.1" xmlns="http://www.w3.org/2000/svg" xmlns:xlink="http://www.w3.org/1999/xlink" x="0px" y="0px"
	 viewBox="0 0 24 24" style="enable-background:new 0 0 24 24;" xml:space="preserve">
<style type="text/css">
	.st0{fill:none;}
	.st1{fill:#121331;}
</style>
<g id="bounding_area">
	<rect class="st0" width="24" height="24"/>
</g>
<g id="design">
	<path class="st1" d="M20.96,11.99l-2.71-7.5C18.14,4.2,17.86,4,17.54,4H6.47c-0.32,0-0.6,0.2-0.71,0.49l-2.71,7.5
		C3.02,12.07,3,12.16,3,12.24v7.01C3,20.21,3.79,21,4.75,21h14.5c0.97,0,1.75-0.79,1.75-1.75v-7.01
		C21,12.16,20.99,12.07,20.96,11.99z M6.99,5.5h10.02l2.35,6.49h-3.11c-0.96,0-1.75,0.79-1.75,1.75v1.52c0,0.14-0.11,0.25-0.25,0.25
		h-4.5c-0.14,0-0.25-0.11-0.25-0.25v-1.52c0-0.96-0.78-1.75-1.75-1.75H4.64L6.99,5.5z M19.5,19.25c0,0.14-0.11,0.25-0.25,0.25H4.75
		c-0.13,0-0.25-0.11-0.25-0.25v-5.76h3.25c0.14,0,0.25,0.12,0.25,0.25v1.52c0,0.97,0.79,1.75,1.75,1.75h4.5
		c0.97,0,1.75-0.78,1.75-1.75v-1.52c0-0.13,0.12-0.25,0.25-0.25h3.25V19.25z"/>
</g>
</svg>
